PathFileType	4	(X/Y/Z)	C:\Users\°ÂÌØÂü\Desktop\20210112\bx_y_10_902-Unnamed.trc
DataRate	CameraRate	NumFrames	NumMarkers	Units	OrigDataRate	OrigDataStartFrame	OrigNumFrames
50.00	50.00	       7	0	mm	50.00	323	       516
Frame#	Time	
		

323	6.440	-780.37225	200.99524	533.68738	-844.48700	273.93646	861.09485	-678.68152	51.11031	164.73643	-767.71808	-25.61109	798.45129	-806.22235	137.96841	564.64941	-860.28430	-76.58149	706.44128	-845.41071	240.30147	561.82715	-864.26050	253.64601	483.09552	-846.42633	-92.64092	859.51208				-662.78931	-69.34778	160.91104	-722.90643	157.86613	222.86673	-777.09229	228.30461	202.28493	-622.27704	-80.17117	157.46364	-882.51379	296.25983	144.75235	-770.30078	4.86608	524.63287	-605.65601	20.01129	167.08981	-562.79730	-36.21902	163.42996	-678.42365	176.30641	163.39134	-597.24878	221.15404	172.91824	-665.59198	299.46555	159.23636	-627.72998	306.30579	161.23039	-562.52026	256.99533	164.39857	-528.53796	303.83353	146.57094	-109.15517	127.22082	974.44965	-872.94122	280.72983	732.32819	-833.72339	-47.16682	607.58221	-518.06781	-72.71966	143.47058							-772.52692	-16.13958	202.29567	-798.93146	46.27084	173.32121	-801.25543	178.98636	181.63055	-853.54199	-49.98819	469.09381	-876.03320	-78.59757	141.50241							-830.50818	-40.50518	556.53973							-901.27045	75.00494	1106.25378	-777.91278	206.98923	797.78168	
324	6.460	-780.15076	201.08955	533.62122	-843.53827	273.63089	861.11163	-678.66705	50.92098	164.50375	-767.06549	-25.01437	797.97028	-805.53754	137.99306	564.91785	-859.97986	-76.31003	706.31573	-845.30939	240.21178	561.81732	-864.09924	253.36186	483.22055	-845.19891	-92.43182	859.17346	-730.33490	67.84004	222.80850	-662.89508	-69.31580	160.78636	-722.79425	158.07660	223.21040	-777.09229	228.30461	202.28493	-622.00452	-79.96249	157.19470	-882.57965	296.26184	144.78772	-770.14679	4.80391	524.41034	-605.58820	19.98147	167.15591	-562.75641	-36.28292	163.40417	-678.44769	176.19551	163.28790	-597.33685	220.96257	172.97182	-665.63306	299.53064	159.39435	-627.65179	306.39938	161.32791	-562.44818	256.77744	164.33505	-528.46741	303.85513	146.60568	-107.16415	127.00515	973.34570	-872.21393	280.80035	732.88739	-833.32111	-47.44378	607.70471	-518.01141	-72.91624	143.26308							-772.75330	-16.04654	201.87669	-798.87946	46.04393	173.07570	-801.23334	178.87727	181.53929	-853.34375	-50.28979	469.10010	-876.02838	-78.54763	141.55200							-830.37964	-40.42379	556.33801							-900.45404	74.91895	1106.24768	-777.09528	206.92767	797.85016	
325	6.480	-779.24414	200.94957	534.52997	-843.03333	273.30847	861.40277	-678.50250	51.12534	164.61786	-766.20099	-24.72488	797.84235	-805.25574	137.76237	564.90839	-859.38782	-76.49709	706.22577	-844.71130	240.13399	561.82251	-863.84442	252.94930	483.31091	-844.04572	-92.11948	859.17786	-730.81146	67.89548	223.37210	-662.84955	-69.30521	160.84729	-722.80817	157.87962	222.98657	-777.09229	228.30461	202.28493	-622.27319	-80.11818	157.23703	-882.53406	296.09598	144.57982	-768.93439	4.31644	523.97052	-605.41547	20.01994	167.08421	-562.71484	-36.20656	163.57132	-678.48187	176.13429	163.20738	-597.28479	221.20445	173.21643	-665.44043	299.51660	159.57848	-627.58289	306.32416	161.37982	-562.44818	256.77744	164.33505	-528.42883	303.81665	146.73676	-105.61974	126.40343	973.18829	-871.85309	280.50299	733.14032	-832.64972	-47.14349	607.45056	-518.23358	-72.37070	143.00208							-772.74915	-16.10839	201.90404	-799.06702	46.16325	172.98332	-801.25122	178.77971	181.62411	-852.76990	-50.38278	469.08420	-876.02838	-78.54763	141.55200							-830.16278	-40.88186	556.52380							-899.37848	74.72080	1106.57092	-776.44818	206.05496	797.71472	
326	6.500	-778.70129	200.52943	534.29852	-842.33710	273.54935	862.13702	-678.55743	51.03009	164.59427	-765.19672	-25.03695	798.73914	-804.69580	137.48738	565.24731	-858.59467	-75.81052	705.93488	-844.23065	240.36107	562.19958	-863.46234	252.83894	483.27228	-843.01154	-92.50198	859.78363	-730.81146	67.89548	223.37210	-662.95160	-69.34717	160.69327	-722.75006	157.78258	223.00386	-776.85205	228.05368	202.13336	-622.02655	-79.90051	157.27963	-882.63617	296.28104	144.71733	-768.61664	4.47120	524.28125	-605.58820	19.98147	167.15591	-562.57507	-36.19555	163.29407	-678.44769	176.19551	163.28790	-597.25000	221.36996	173.26772	-665.51477	299.15714	159.30821	-627.52979	306.32031	161.45538	-562.33160	257.08112	164.30899	-528.52222	303.90195	146.54039	-104.37659	126.10751	974.78619	-870.65057	280.49152	733.68182	-831.66382	-47.15787	607.59686	-518.11371	-72.59234	143.16986							-772.67615	-16.12070	201.97281	-798.96564	46.27538	173.08702	-800.98737	178.73000	181.56705	-852.36145	-50.63520	469.46198	-876.02838	-78.54763	141.55200							-829.94055	-40.94301	556.69525							-899.14423	74.77863	1106.53894	-776.26007	205.92578	797.95575	
327	6.520	-778.36292	200.53734	534.13239	-841.34662	273.08810	862.06262	-678.49615	51.06076	164.41179	-764.63788	-24.84344	798.70905	-804.24146	137.18985	565.34888	-857.59436	-75.81933	706.80487	-843.50958	240.18428	562.26953	-862.47559	252.59587	483.39502	-842.46570	-92.69237	860.31683	-730.75226	68.22575	223.45062	-662.85345	-69.35038	160.82199	-722.65607	157.86499	222.70763	-776.77960	228.05136	202.19498	-622.36261	-80.09268	157.26436	-882.48578	296.13718	144.66689	-767.91888	4.19671	524.62189	-605.43628	19.95958	167.04651	-562.69342	-36.31729	163.48296	-678.42285	176.25664	162.98686	-597.10266	221.18265	173.21088	-665.43024	299.18018	159.34319	-627.58289	306.32416	161.37982	-562.39575	256.62045	164.48323	-528.46741	303.85513	146.60568	-103.50093	125.45895	977.36731	-870.00830	280.58408	733.96692	-831.17548	-46.84612	607.87396	-518.32574	-72.41499	143.17876							-772.62933	-15.98499	202.04974	-798.92505	46.13171	173.10915	-800.69513	178.63828	181.47981	-851.92310	-50.41194	469.51315	-875.90167	-78.49648	141.73723							-829.44238	-40.73528	556.64862							-898.79504	74.80543	1107.07813	-774.99023	206.71892	798.99982	
328	6.540	-777.81592	200.54108	534.12799	-841.09326	273.11249	862.34039	-678.43744	51.32883	164.51149	-764.18964	-24.63263	798.94293	-803.87274	137.31549	565.22150	-856.78613	-75.71862	706.89136	-843.23663	240.34276	562.29486	-862.30347	252.80556	483.67093	-841.68384	-92.39730	860.31744	-730.16016	68.01231	223.49782	-662.85345	-69.35038	160.82199	-722.49963	157.78143	222.84477	-776.56952	228.06384	202.18594	-621.89178	-79.95618	157.18637	-882.58478	296.15625	144.63521	-767.91888	4.19671	524.62189	-605.55603	20.03900	167.10593	-562.60950	-36.34053	163.40572	-678.48187	176.13429	163.20738	-596.99890	221.16394	173.07965	-665.38483	299.13388	159.20581	-627.52979	306.32031	161.45538	-562.20557	256.82571	164.50639	-528.46741	303.85513	146.60568	-103.00227	125.30277	980.97992	-869.49078	280.16577	733.97192	-830.36920	-47.17413	608.24658	-518.10632	-72.61373	143.18825							-772.62933	-15.98499	202.04974	-798.97833	46.10323	173.03642	-800.55426	178.58772	181.34239	-851.82562	-50.13490	469.39572	-875.85663	-78.57385	141.70607							-828.36597	-40.72390	556.80261							-898.73511	74.83791	1107.20679	-774.39471	206.73474	799.21875	
329	6.560	-777.57703	200.86424	534.24353	-840.69226	272.97897	862.39282	-678.33002	51.18817	164.34993	-763.64447	-24.38290	798.88965	-803.46844	137.51649	565.17621	-856.62488	-76.01741	706.42596	-842.97705	240.15726	562.14484	-862.15381	252.89658	483.65167	-841.28638	-91.87946	860.18390	-730.37915	68.39866	223.07491	-662.88849	-69.25258	160.82332	-722.49963	157.78143	222.84477	-776.56427	228.06212	201.98386	-621.77338	-80.06360	157.47694	-882.58478	296.15625	144.63521	-767.74658	4.33115	524.36310	-605.32672	19.98138	167.18579	-562.74194	-36.25030	163.44928	-678.49432	176.06001	163.14912	-596.91638	221.07753	173.28523	-665.12164	299.30090	159.51903	-627.53870	306.21509	161.34506	-562.20959	256.85385	164.28049	-528.42999	303.98358	146.65669	-102.16734	124.70748	985.21069	-869.15808	280.24567	734.16266	-830.89984	-47.15855	607.38702	-518.44830	-72.28071	143.36963							-772.83081	-15.96473	201.78625	-799.04218	46.24140	172.92918	-800.69513	178.63828	181.47981	-851.29321	-50.31490	469.59918	-876.05151	-78.64049	141.43311							-828.43109	-40.17782	556.23505							-899.07410	74.99556	1106.88049	-774.27679	206.30838	798.64948	
